<svg width="16" height="17" viewBox="0 0 16 17" fill="none" xmlns="http://www.w3.org/2000/svg">
<path d="M13.9985 4.98681C13.9851 4.98681 13.9651 4.98681 13.9451 4.98681C10.4185 4.63348 6.89848 4.50015 3.41181 4.85348L2.05181 4.98681C1.77181 5.01348 1.52515 4.81348 1.49848 4.53348C1.47181 4.25348 1.67181 4.01348 1.94515 3.98681L3.30515 3.85348C6.85181 3.49348 10.4451 3.63348 14.0451 3.98681C14.3185 4.01348 14.5185 4.26015 14.4918 4.53348C14.4718 4.79348 14.2518 4.98681 13.9985 4.98681Z" fill="#4D4F5C"/>
<path d="M5.66846 4.3135C5.6418 4.3135 5.61513 4.3135 5.5818 4.30683C5.31513 4.26016 5.12846 4.00016 5.17513 3.7335L5.3218 2.86016C5.42846 2.22016 5.57513 1.3335 7.12846 1.3335H8.87513C10.4351 1.3335 10.5818 2.2535 10.6818 2.86683L10.8285 3.7335C10.8751 4.00683 10.6885 4.26683 10.4218 4.30683C10.1485 4.3535 9.88846 4.16683 9.84846 3.90016L9.7018 3.0335C9.60846 2.4535 9.58846 2.34016 8.8818 2.34016H7.13513C6.42846 2.34016 6.41513 2.4335 6.31513 3.02683L6.1618 3.8935C6.1218 4.14016 5.90846 4.3135 5.66846 4.3135Z" fill="#4D4F5C"/>
<path d="M10.1416 15.6667H5.86156C3.53489 15.6667 3.44156 14.3801 3.36823 13.3401L2.93489 6.62672C2.91489 6.35338 3.12823 6.11338 3.40156 6.09338C3.68156 6.08005 3.91489 6.28672 3.93489 6.56005L4.36823 13.2734C4.44156 14.2867 4.46823 14.6667 5.86156 14.6667H10.1416C11.5416 14.6667 11.5682 14.2867 11.6349 13.2734L12.0682 6.56005C12.0882 6.28672 12.3282 6.08005 12.6016 6.09338C12.8749 6.11338 13.0882 6.34672 13.0682 6.62672L12.6349 13.3401C12.5616 14.3801 12.4682 15.6667 10.1416 15.6667Z" fill="#4D4F5C"/>
<path d="M9.10672 12H6.88672C6.61339 12 6.38672 11.7733 6.38672 11.5C6.38672 11.2267 6.61339 11 6.88672 11H9.10672C9.38005 11 9.60672 11.2267 9.60672 11.5C9.60672 11.7733 9.38005 12 9.10672 12Z" fill="#4D4F5C"/>
<path d="M9.66536 9.3335H6.33203C6.0587 9.3335 5.83203 9.10683 5.83203 8.8335C5.83203 8.56016 6.0587 8.3335 6.33203 8.3335H9.66536C9.9387 8.3335 10.1654 8.56016 10.1654 8.8335C10.1654 9.10683 9.9387 9.3335 9.66536 9.3335Z" fill="#4D4F5C"/>
</svg>
